<?xml version="1.0" standalone="no"?>
<!DOCTYPE svg PUBLIC "-//W3C//DTD SVG 20010904//EN"
 "http://www.w3.org/TR/2001/REC-SVG-20010904/DTD/svg10.dtd">
<svg version="1.0" xmlns="http://www.w3.org/2000/svg"
 width="204.000000pt" height="151.000000pt" viewBox="0 0 204.000000 151.000000"
 preserveAspectRatio="xMidYMid meet">
<metadata>
Created by potrace 1.16, written by Peter Selinger 2001-2019
</metadata>
<g transform="translate(0.000000,151.000000) scale(0.100000,-0.100000)"
fill="#000000" stroke="none">
<path d="M972 965 c-34 -7 -111 -36 -170 -64 -104 -48 -110 -50 -222 -55 -127
-6 -255 -34 -300 -66 -37 -26 -65 -98 -56 -144 8 -43 17 -49 82 -56 l51 -6 -5
47 c-8 84 50 149 133 149 84 0 141 -65 133 -152 l-5 -48 347 0 348 0 -5 44
c-10 86 49 156 132 156 78 0 138 -59 138 -136 l0 -45 56 7 c78 9 98 19 116 53
19 37 19 64 1 104 -8 18 -21 48 -29 69 -15 36 -16 36 -84 43 -40 4 -95 18
-135 35 -160 70 -384 97 -526 65z m261 -26 c40 -6 93 -20 119 -31 41 -18 46
-23 37 -39 -9 -18 -25 -19 -273 -19 -219 0 -265 2 -269 14 -7 18 6 29 63 50
96 36 201 44 323 25z"/>
<path d="M428 734 c-76 -41 -74 -159 2 -199 57 -30 127 -10 155 45 53 103 -55
210 -157 154z"/>
<path d="M1400 743 c-30 -11 -70 -57 -76 -89 -4 -21 0 -45 11 -68 48 -101 197
-79 212 31 11 86 -68 155 -147 126z"/>
</g>
</svg>
